<svg width="192" height="44" viewBox="0 0 192 44" fill="none" xmlns="http://www.w3.org/2000/svg">
<path d="M33.9263 34.514H27.5391V0.400879H33.9263V34.514Z" fill="white"/>
<path d="M75.5152 41.1906H70.2634C69.5064 41.1906 68.8204 41.0962 68.2053 40.8839C67.5902 40.6716 67.0461 40.2941 66.5493 39.7515L61.5341 34.2311C60.7298 34.4434 59.9018 34.6086 59.0502 34.7265C58.1986 34.8445 57.3233 34.8917 56.4243 34.8917C53.8457 34.8917 51.4801 34.4434 49.351 33.5705C47.2219 32.6977 45.4003 31.4945 43.8863 29.9375C42.3723 28.3804 41.1894 26.5403 40.3378 24.3935C39.5098 22.2703 39.084 19.9347 39.084 17.4576C39.084 14.9569 39.5098 12.645 40.3378 10.4982C41.1658 8.37494 42.3486 6.51122 43.8863 4.95419C45.4003 3.39716 47.2219 2.17041 49.351 1.32112C51.4801 0.448237 53.8457 0 56.4243 0C58.1512 0 59.7835 0.212323 61.3212 0.613377C62.8589 1.01443 64.2547 1.58062 65.5321 2.31196C66.8096 3.04329 67.9451 3.93976 68.9623 4.97778C69.9796 6.0158 70.8549 7.19537 71.5646 8.4929C72.2743 9.79043 72.8184 11.1823 73.1732 12.6922C73.5517 14.202 73.7173 15.7826 73.7173 17.4576C73.7173 18.9911 73.5517 20.4301 73.2442 21.822C72.9366 23.2139 72.4872 24.5115 71.8721 25.7146C71.2807 26.9178 70.571 28.0502 69.7193 29.0646C68.8677 30.079 67.8978 30.9755 66.8096 31.7304L75.5152 41.1906ZM45.5896 17.4576C45.5896 19.3213 45.8498 20.9963 46.3466 22.4826C46.8434 23.9689 47.5767 25.2192 48.4993 26.2572C49.4456 27.2952 50.5811 28.0737 51.9059 28.6399C53.2307 29.1825 54.7447 29.4656 56.4006 29.4656C58.0803 29.4656 59.5706 29.1825 60.8954 28.6399C62.2202 28.0973 63.3557 27.2952 64.2783 26.2572C65.2009 25.2192 65.9343 23.9689 66.4311 22.4826C66.9278 20.9963 67.1881 19.3213 67.1881 17.4576C67.1881 15.5939 66.9278 13.8953 66.4311 12.4091C65.9343 10.9228 65.2009 9.67247 64.2783 8.61086C63.3557 7.57284 62.2202 6.77073 60.8954 6.22813C59.5706 5.68552 58.0566 5.40243 56.4006 5.40243C54.721 5.40243 53.2307 5.68552 51.9059 6.22813C50.5811 6.77073 49.4456 7.57284 48.4993 8.61086C47.5531 9.64888 46.8434 10.9228 46.3466 12.4091C45.8498 13.8953 45.5896 15.5939 45.5896 17.4576Z" fill="white"/>
<path d="M82.9905 13.2818C83.4873 12.7864 83.9841 12.3381 84.5282 11.9135C85.0723 11.4888 85.6401 11.135 86.2551 10.8519C86.8702 10.5688 87.5089 10.3328 88.195 10.1677C88.881 10.0026 89.638 9.9082 90.466 9.9082C91.7908 9.9082 92.9736 10.1441 93.9909 10.5924C95.0081 11.0406 95.8597 11.6776 96.5458 12.4797C97.2318 13.2818 97.7523 14.249 98.1071 15.3814C98.462 16.5138 98.6276 17.7405 98.6276 19.1088V34.514H92.7844V19.1088C92.7844 17.6226 92.4532 16.4902 91.7671 15.6645C91.0811 14.8624 90.0639 14.4613 88.6681 14.4613C87.6509 14.4613 86.7046 14.6973 85.8293 15.1455C84.954 15.5937 84.1024 16.2307 83.3217 17.0092V34.514H77.4785V10.3093H81.0507C81.8077 10.3093 82.3045 10.6631 82.541 11.3709L82.9905 13.2818Z" fill="white"/>
<path d="M108.232 23.1428C108.326 24.3932 108.539 25.4548 108.894 26.3748C109.249 27.2713 109.698 28.0262 110.266 28.616C110.834 29.2058 111.496 29.654 112.277 29.9371C113.058 30.2202 113.933 30.3854 114.879 30.3854C115.825 30.3854 116.653 30.2674 117.339 30.0551C118.025 29.8428 118.617 29.5833 119.137 29.3238C119.658 29.0643 120.107 28.8047 120.486 28.5924C120.864 28.3801 121.243 28.2621 121.621 28.2621C122.118 28.2621 122.473 28.4509 122.709 28.8047L124.389 30.928C123.75 31.6829 123.017 32.3199 122.213 32.8153C121.408 33.3343 120.557 33.7353 119.681 34.042C118.806 34.3487 117.907 34.561 117.008 34.7026C116.109 34.8205 115.234 34.8913 114.359 34.8913C112.679 34.8913 111.094 34.6082 109.651 34.0656C108.208 33.4994 106.931 32.6737 105.866 31.5885C104.801 30.5033 103.95 29.135 103.335 27.5308C102.72 25.9266 102.412 24.0393 102.412 21.9161C102.412 20.2647 102.672 18.7076 103.216 17.245C103.761 15.7823 104.518 14.532 105.535 13.4468C106.528 12.3616 107.758 11.5123 109.202 10.8753C110.645 10.2383 112.277 9.93164 114.098 9.93164C115.636 9.93164 117.032 10.1676 118.333 10.663C119.634 11.1584 120.746 11.8661 121.669 12.8098C122.591 13.7534 123.325 14.8858 123.845 16.2541C124.365 17.6224 124.626 19.1795 124.626 20.9252C124.626 21.7981 124.531 22.3879 124.342 22.7182C124.153 23.0249 123.798 23.1664 123.254 23.1664H108.232V23.1428ZM119.374 19.6277C119.374 18.8728 119.256 18.165 119.066 17.5045C118.853 16.8439 118.546 16.2541 118.12 15.7351C117.694 15.2397 117.15 14.8386 116.488 14.5556C115.825 14.2725 115.068 14.1073 114.217 14.1073C112.537 14.1073 111.189 14.5791 110.219 15.5464C109.249 16.5136 108.634 17.8583 108.374 19.6277H119.374Z" fill="white"/>
<path d="M134.041 14.5088C134.798 13.0698 135.697 11.9138 136.737 11.0881C137.778 10.2624 139.008 9.86133 140.428 9.86133C141.54 9.86133 142.439 10.0972 143.125 10.5927L142.746 14.9571C142.675 15.2402 142.557 15.4289 142.391 15.5469C142.249 15.6648 142.036 15.7356 141.8 15.7356C141.563 15.7356 141.209 15.6884 140.735 15.6176C140.262 15.5469 139.813 15.4997 139.363 15.4997C138.725 15.4997 138.133 15.594 137.636 15.7828C137.14 15.9715 136.69 16.231 136.264 16.5849C135.838 16.9387 135.507 17.3634 135.2 17.8824C134.892 18.3778 134.608 18.9676 134.348 19.6046V34.5143H128.505V10.3096H131.935C132.527 10.3096 132.952 10.4275 133.189 10.6398C133.425 10.8522 133.591 11.2296 133.662 11.7958L134.041 14.5088Z" fill="white"/>
<path d="M166.736 11.1348V13.3052C166.736 13.9894 166.31 14.414 165.482 14.5791L163.305 14.9802C163.637 15.8059 163.802 16.726 163.802 17.7168C163.802 18.92 163.566 20.0052 163.093 20.9724C162.619 21.9397 161.957 22.7654 161.082 23.4495C160.23 24.1336 159.237 24.6527 158.054 25.0065C156.895 25.384 155.641 25.5727 154.316 25.5727C153.843 25.5727 153.393 25.5491 152.944 25.5019C152.494 25.4548 152.069 25.384 151.643 25.3132C150.886 25.7615 150.507 26.2805 150.507 26.8467C150.507 27.3421 150.744 27.6959 151.193 27.9319C151.643 28.1678 152.234 28.3093 152.968 28.4037C153.701 28.4981 154.553 28.5452 155.499 28.5924C156.445 28.6396 157.415 28.6632 158.409 28.734C159.402 28.8047 160.372 28.9463 161.318 29.1586C162.265 29.3473 163.116 29.654 163.85 30.1023C164.583 30.5269 165.198 31.0931 165.624 31.848C166.073 32.5794 166.31 33.523 166.31 34.6554C166.31 35.717 166.05 36.755 165.506 37.7695C164.985 38.7839 164.204 39.6804 163.211 40.4589C162.217 41.2374 160.987 41.8744 159.52 42.3462C158.054 42.818 156.398 43.0775 154.553 43.0775C152.731 43.0775 151.122 42.8888 149.774 42.5585C148.425 42.2046 147.29 41.7328 146.391 41.143C145.492 40.5532 144.83 39.8691 144.38 39.1142C143.931 38.3357 143.718 37.5336 143.718 36.7079C143.718 35.5755 144.049 34.6318 144.735 33.8769C145.421 33.122 146.367 32.5086 147.574 32.0368C146.935 31.7065 146.415 31.2582 146.036 30.7156C145.658 30.173 145.468 29.4417 145.468 28.5452C145.468 28.1914 145.539 27.8139 145.681 27.4129C145.823 27.0354 146.012 26.6579 146.273 26.2569C146.533 25.8794 146.864 25.5255 147.243 25.1953C147.645 24.865 148.094 24.5583 148.638 24.2752C147.408 23.6146 146.438 22.7418 145.752 21.633C145.043 20.5242 144.688 19.2502 144.688 17.764C144.688 16.5608 144.924 15.4992 145.397 14.5084C145.871 13.5411 146.557 12.7154 147.408 12.0313C148.26 11.3471 149.277 10.8281 150.46 10.4742C151.643 10.1204 152.92 9.93164 154.292 9.93164C155.333 9.93164 156.303 10.026 157.226 10.2619C158.148 10.4742 158.976 10.7809 159.733 11.182H166.736V11.1348ZM160.916 35.5991C160.916 35.1272 160.774 34.7498 160.49 34.4431C160.206 34.1364 159.828 33.9241 159.331 33.7353C158.834 33.5702 158.267 33.4522 157.628 33.3815C156.965 33.3107 156.279 33.2399 155.546 33.1927C154.813 33.1456 154.056 33.122 153.275 33.0748C152.494 33.0512 151.737 32.9804 150.98 32.8861C150.342 33.2399 149.821 33.6646 149.419 34.16C149.017 34.6554 148.828 35.2216 148.828 35.8586C148.828 36.2832 148.922 36.6843 149.135 37.0617C149.348 37.4392 149.679 37.7459 150.152 38.0054C150.626 38.2649 151.217 38.4772 151.974 38.6188C152.707 38.7603 153.63 38.8547 154.694 38.8547C155.783 38.8547 156.729 38.7603 157.51 38.6188C158.29 38.4536 158.953 38.2177 159.449 37.9346C159.97 37.6515 160.348 37.2976 160.585 36.8966C160.798 36.4955 160.916 36.0709 160.916 35.5991ZM154.316 21.8217C155.049 21.8217 155.664 21.7273 156.208 21.5386C156.753 21.3499 157.178 21.0668 157.533 20.7129C157.888 20.359 158.148 19.958 158.338 19.4626C158.527 18.9671 158.621 18.4481 158.621 17.8583C158.621 16.6552 158.267 15.7115 157.533 15.0274C156.824 14.3196 155.735 13.9658 154.316 13.9658C152.873 13.9658 151.808 14.3196 151.075 15.0274C150.365 15.7351 150.01 16.6788 150.01 17.8583C150.01 18.4245 150.105 18.9435 150.294 19.439C150.484 19.9344 150.744 20.359 151.099 20.7129C151.453 21.0668 151.903 21.3499 152.447 21.5386C152.991 21.7273 153.606 21.8217 154.316 21.8217Z" fill="white"/>
<path d="M192 10.3096L178.776 41.1671C178.611 41.5682 178.374 41.8748 178.114 42.0872C177.83 42.2995 177.404 42.4174 176.836 42.4174H172.483L177.026 32.6978L167.208 10.3096H172.341C172.791 10.3096 173.169 10.4275 173.406 10.6399C173.666 10.8522 173.856 11.1117 173.997 11.3948L179.155 23.9454C179.32 24.37 179.486 24.7947 179.604 25.2193C179.722 25.644 179.841 26.0686 179.959 26.5168C180.101 26.0686 180.243 25.644 180.385 25.1957C180.527 24.7711 180.692 24.3464 180.858 23.9218L185.707 11.3948C185.826 11.0881 186.039 10.8286 186.346 10.6163C186.63 10.4039 186.961 10.3096 187.316 10.3096H192Z" fill="white"/>
<path d="M14.9037 0.330566V19.1565L20.8888 16.703L6.2217 40.9785V22.5301L0 24.8892L14.9037 0.330566Z" fill="#F55C68"/>
</svg>
